<svg
  xmlns="http://www.w3.org/2000/svg"
  viewBox="0 0 1200 460"
  width="2400"
  height="920"
  fill="none">

  <!-- Icon -->
  <g fill="#0E7490">
    <!-- Flow lines -->
    <path d="M0 120 C200 80 400 160 600 120 C800 80 1000 160 1200 120 L1200 160 C1000 200 800 120 600 160 C400 200 200 120 0 160 Z"/>
    <path d="M0 150 C200 110 400 190 600 150 C800 110 1000 190 1200 150 L1200 180 C1000 220 800 140 600 180 C400 220 200 140 0 180 Z" opacity="0.85"/>

    <!-- Digital blocks -->
    <rect x="820" y="60" width="48" height="48"/>
    <rect x="880" y="100" width="48" height="48" opacity="0.9"/>
    <rect x="940" y="60" width="48" height="48" opacity="0.8"/>
    <rect x="1000" y="100" width="48" height="48" opacity="0.7"/>
  </g>

  <!-- Text -->
  <text
    x="600"
    y="320"
    text-anchor="middle"
    font-family="Inter, Poppins, Segoe UI, Helvetica, Arial, sans-serif"
    font-size="140"
    font-weight="600"
    fill="#0E7490">
    NilePMS
  </text>
</svg>
